<?xml version="1.0" ?><!DOCTYPE svg  PUBLIC '-//W3C//DTD SVG 1.0//EN'  'http://www.w3.org/TR/2001/REC-SVG-20010904/DTD/svg10.dtd'><svg enable-background="new 0 0 200 200" height="200px" id="Layer_1" version="1.0" viewBox="0 0 200 200" width="200px" xml:space="preserve" xmlns="http://www.w3.org/2000/svg" xmlns:xlink="http://www.w3.org/1999/xlink"><g id="New_Symbol"/><g id="New_Symbol_1_"/><g id="New_Symbol_1"/><g id="New_Symbol_9_2_"/><g id="New_Symbol_7"/><g id="New_Symbol_9_1_"/><g id="New_Symbol_9"/><g id="Nuevo_símbolo"/><g id="New_Symbol_10"/><g id="New_Symbol_12"/><g id="New_Symbol_14"/><g id="New_Symbol_15"/><g id="New_Symbol_16"/><g id="New_Symbol_17_1_"/><g id="New_Symbol_18"/><g id="New_Symbol_19"/><g id="New_Symbol_17"/><path d="M187.5,85.6C187.5,85.6,187.5,85.6,187.5,85.6C187.5,85.5,187.5,85.5,187.5,85.6c-0.1-0.3-0.2-0.6-0.4-0.7  l-18.9-20.2l-18.9-20.2l-18.9-20.2c-0.3-0.3-0.7-0.5-1.2-0.5l-27.6,1.9l-27.6,1.9l-27.6,1.9c-0.2,0-0.3,0.1-0.5,0.1  c-0.5,0.1-0.9,0.4-1.1,0.9L34.2,58.3L23.4,86l-10.9,27.6c-0.2,0.5-0.1,1.2,0.3,1.6l19.8,20.5l18,19.8c0,0,0,0,0,0c0,0,0,0,0,0  l18.9,20.2c0,0,0.1,0,0.1,0.1c0,0,0.1,0.1,0.1,0.1c0.1,0,0.1,0.1,0.2,0.1c0,0,0.1,0,0.1,0.1c0.1,0,0.1,0.1,0.2,0.1c0,0,0.1,0,0.1,0  c0.1,0,0.2,0,0.3,0c0,0,0.1,0,0.1,0l27.6-1.9l27.6-1.9l27.6-1.9c0.6,0,1.1-0.4,1.3-0.9l10.9-27.6l10.9-27.6l10.9-27.6  C187.6,86.3,187.6,85.9,187.5,85.6z M173,115.4l-9.6,24.5l-21,1.4l-3.3,0.2l9.6-24.5l21-1.4L173,115.4z M78,160.2l4.6-11.7l21.1-1.5  l3.2-0.2l-9.6,24.5L73,173L78,160.2z M35.5,134.4l9.6-24.5l15.8,17.3l-9.6,24.5L35.5,134.4z M147.7,47l16.2,17.4l-5,0.4l-18.7,1.3  L124,48.7l5.2-0.4L147.7,47z M119,116.1l-24.3,1.7l9.6-24.5l24.3-1.7l-5.1,13.1L119,116.1z M139,69.2l16.2,17.4l-23.7,1.7  l-16.2-17.4l1.3-0.1L139,69.2z M111.4,71.1l16.2,17.4L104,90.1L87.7,72.8l5.2-0.4L111.4,71.1z M75.2,98.9l0.4-1.1l9.2-23.5  l16.7,17.8l-1,2.6l-8.6,22l-4.8-5.1L75.2,98.9z M83.8,145.4l9.6-24.5l24.3-1.7l-9.6,24.5L87,145.2L83.8,145.4z M122.3,115.8  l5.1-13.1l4.5-11.4l24.3-1.7l-9.6,24.5l-22.6,1.6L122.3,115.8z M120.1,49l16.2,17.4l-1.3,0.1L112.6,68L96.4,50.7l5.2-0.4L120.1,49z   M92.5,50.9l16.2,17.4l-5.2,0.4L85.1,70L78.6,63l-9.5-10.5l0.7-0.1L92.5,50.9z M66.8,54.8l9.6,10.3l6.2,6.9l-9,22.9L73,96.4  l-1.7-1.8L57.2,79.1l8.2-20.9L66.8,54.8z M56,82.2l1.7,1.8l14.1,15.5l-8.2,20.9l-1.4,3.6l-3.5-3.8l-12.3-13.5l9-22.9L56,82.2z   M64.4,126.5l1-2.6l8.6-22l4.8,5.1l11.9,12.7l-0.4,1.1L81,144.3l-3.8-4.1L64.4,126.5z M111.4,143.5l9.6-24.5l21-1.4l3.3-0.2  l-9.6,24.5l-21,1.4L111.4,143.5z M159.1,86.3l-16.2-17.4l5-0.4l18.7-1.3l16.2,17.4L159.1,86.3z M128.8,26.9L145,44.2l-5.2,0.4  l-18.5,1.3l-16.2-17.4L128.8,26.9z M101.2,28.8l16.2,17.4l-5.2,0.4l-18.5,1.3L77.5,30.5L101.2,28.8z M73.7,30.8l16.2,17.4l-1,0.1  l-22.5,1.6l-9.1-9.4l-7.4-8L73.7,30.8z M47,34l8.2,8.5l9.3,9.9l0,0L63.1,56l-8.1,20.7L37.4,58.5L47,34z M36.2,61.6l17.6,18.2  l-1.4,3.7l-8.2,20.9L26.5,86.2L36.2,61.6z M25.3,89.2l10.8,11.2l6.8,7L33.2,132l-17.6-18.2L25.3,89.2z M55.2,149.8l7.9-20.2l3.8,4.1  l12.9,13.7l-1.7,4.3l-7.9,20.2l-16.7-17.8L55.2,149.8z M110.2,146.6l21-1.4l3.3-0.2l-9.6,24.5l-24.3,1.7L110.2,146.6z M152.5,167.5  l-24.3,1.7l9.6-24.5l22.6-1.6l1.7-0.1L152.5,167.5z M174.2,112.3l-21,1.4l-3.3,0.2l9.6-24.5l24.3-1.7L174.2,112.3z" fill="#1D1D1B"/></svg>